<?xml version="1.0" encoding="UTF-8"?>
<svg width="1023px" height="1024px" viewBox="0 0 1023 1024" version="1.1" xmlns="http://www.w3.org/2000/svg" xmlns:xlink="http://www.w3.org/1999/xlink">
    <title>Combined Shape</title>
    <desc>Created with Sketch.</desc>
    <g id="Desktop" fill="#00ab80">
        <path d="M512,0 C782.10339,0 1003.35628,209.153864 1022.63594,474.338866 L917.977051,368.17627 L806.357175,480.62784 C790.689361,331.899959 664.879624,216 512,216 C348.523714,216 216,348.523714 216,512 C216,675.476286 348.523714,808 512,808 C662.06424,808 786.046435,696.32949 805.380034,551.55502 L917.977051,438.847168 L1022.95555,544.969582 C1005.9609,812.375083 783.694276,1024 512,1024 C229.230208,1024 0,794.769792 0,512 C0,229.230208 229.230208,0 512,0 Z"></path>
    </g>
</svg>